<svg width="36" height="29" viewBox="0 0 36 29" fill="none" xmlns="http://www.w3.org/2000/svg">
<g id="building-wheat" clip-path="url(#clip0_4_4806)">
<path id="Primary" d="M0.5 2.7002C0.5 1.25098 1.67578 0.0751953 3.125 0.0751953H18.875C20.3242 0.0751953 21.5 1.25098 21.5 2.7002V25.4502C21.5 26.8994 20.3242 28.0752 18.875 28.0752H13.625V23.7002C13.625 22.251 12.4492 21.0752 11 21.0752C9.55078 21.0752 8.375 22.251 8.375 23.7002V28.0752H3.125C1.67578 28.0752 0.5 26.8994 0.5 25.4502V2.7002ZM4.875 12.3252C4.39375 12.3252 4 12.7189 4 13.2002V14.9502C4 15.4314 4.39375 15.8252 4.875 15.8252H6.625C7.10625 15.8252 7.5 15.4314 7.5 14.9502V13.2002C7.5 12.7189 7.10625 12.3252 6.625 12.3252H4.875ZM9.25 13.2002V14.9502C9.25 15.4314 9.64375 15.8252 10.125 15.8252H11.875C12.3562 15.8252 12.75 15.4314 12.75 14.9502V13.2002C12.75 12.7189 12.3562 12.3252 11.875 12.3252H10.125C9.64375 12.3252 9.25 12.7189 9.25 13.2002ZM15.375 12.3252C14.8938 12.3252 14.5 12.7189 14.5 13.2002V14.9502C14.5 15.4314 14.8938 15.8252 15.375 15.8252H17.125C17.6063 15.8252 18 15.4314 18 14.9502V13.2002C18 12.7189 17.6063 12.3252 17.125 12.3252H15.375ZM4 6.2002V7.9502C4 8.43145 4.39375 8.8252 4.875 8.8252H6.625C7.10625 8.8252 7.5 8.43145 7.5 7.9502V6.2002C7.5 5.71895 7.10625 5.3252 6.625 5.3252H4.875C4.39375 5.3252 4 5.71895 4 6.2002ZM10.125 5.3252C9.64375 5.3252 9.25 5.71895 9.25 6.2002V7.9502C9.25 8.43145 9.64375 8.8252 10.125 8.8252H11.875C12.3562 8.8252 12.75 8.43145 12.75 7.9502V6.2002C12.75 5.71895 12.3562 5.3252 11.875 5.3252H10.125ZM14.5 6.2002V7.9502C14.5 8.43145 14.8938 8.8252 15.375 8.8252H17.125C17.6063 8.8252 18 8.43145 18 7.9502V6.2002C18 5.71895 17.6063 5.3252 17.125 5.3252H15.375C14.8938 5.3252 14.5 5.71895 14.5 6.2002ZM35.5 10.5752V11.4502C35.5 13.8674 33.5422 15.8252 31.125 15.8252H30.25V14.9502C30.25 12.533 32.2078 10.5752 34.625 10.5752H35.5ZM35.5 17.5752C35.5 19.9924 33.5422 21.9502 31.125 21.9502H30.25V21.0752C30.25 18.658 32.2078 16.7002 34.625 16.7002H35.5V17.5752ZM35.5 23.7002C35.5 26.1174 33.5422 28.0752 31.125 28.0752H30.25V27.2002C30.25 24.783 32.2078 22.8252 34.625 22.8252H35.5V23.7002ZM28.5 27.2002V28.0752H27.625C25.2078 28.0752 23.25 26.1174 23.25 23.7002V22.8252H24.125C26.5422 22.8252 28.5 24.783 28.5 27.2002ZM28.5 21.9502H27.625C25.2078 21.9502 23.25 19.9924 23.25 17.5752V16.7002H24.125C26.5422 16.7002 28.5 18.658 28.5 21.0752V21.9502ZM28.5 14.9502V15.8252H27.625C25.2078 15.8252 23.25 13.8674 23.25 11.4502V10.5752H24.125C26.5422 10.5752 28.5 12.533 28.5 14.9502ZM29.375 1.8252C30.1023 1.8252 30.6875 2.41035 30.6875 3.1377V8.8252C30.6875 9.55254 30.1023 10.1377 29.375 10.1377C28.6477 10.1377 28.0625 9.55254 28.0625 8.8252V3.1377C28.0625 2.41035 28.6477 1.8252 29.375 1.8252ZM34.625 5.3252V7.0752C34.625 7.80254 34.0398 8.3877 33.3125 8.3877C32.5852 8.3877 32 7.80254 32 7.0752V5.3252C32 4.59785 32.5852 4.0127 33.3125 4.0127C34.0398 4.0127 34.625 4.59785 34.625 5.3252ZM25.4375 4.0127C26.1648 4.0127 26.75 4.59785 26.75 5.3252V7.0752C26.75 7.80254 26.1648 8.3877 25.4375 8.3877C24.7102 8.3877 24.125 7.80254 24.125 7.0752V5.3252C24.125 4.59785 24.7102 4.0127 25.4375 4.0127Z" fill="#3E97FF"/>
</g>
<defs>
<clipPath id="clip0_4_4806">
<rect width="35" height="28" fill="white" transform="translate(0.5 0.0751953)"/>
</clipPath>
</defs>
</svg>
