<svg width="36" height="32" viewBox="0 0 36 32" fill="none" xmlns="http://www.w3.org/2000/svg">
<g id="house" clip-path="url(#clip0_4_4795)">
<path id="Primary" d="M35.4876 15.9696C35.4876 17.0634 34.5762 17.9202 33.5432 17.9202H31.5987L31.6413 27.6545C31.6413 27.8186 31.6291 27.9827 31.6109 28.1467V29.1311C31.6109 30.474 30.5232 31.5616 29.1803 31.5616H28.2081C28.1413 31.5616 28.0744 31.5616 28.0076 31.5556C27.9225 31.5616 27.8375 31.5616 27.7524 31.5616L25.7776 31.5556H24.3192C22.9763 31.5556 21.8887 30.4679 21.8887 29.125V27.6667V23.7778C21.8887 22.7023 21.0197 21.8333 19.9442 21.8333H16.0553C14.9798 21.8333 14.1109 22.7023 14.1109 23.7778V27.6667V29.125C14.1109 30.4679 13.0232 31.5556 11.6803 31.5556H10.222H8.28364C8.19249 31.5556 8.10135 31.5495 8.0102 31.5434C7.93728 31.5495 7.86437 31.5556 7.79145 31.5556H6.81923C5.47635 31.5556 4.38867 30.4679 4.38867 29.125V22.3195C4.38867 22.2648 4.38867 22.204 4.39475 22.1493V17.9141H2.4503C1.35655 17.9141 0.505859 17.0634 0.505859 15.9636C0.505859 15.4167 0.688151 14.9306 1.1135 14.5052L16.6873 0.930569C17.1126 0.505222 17.5987 0.444458 18.0241 0.444458C18.4494 0.444458 18.9355 0.565986 19.3001 0.869805L34.8192 14.5113C35.3053 14.9366 35.5484 15.4228 35.4876 15.9696Z" fill="#3E97FF"/>
</g>
<defs>
<clipPath id="clip0_4_4795">
<rect width="35" height="31.1111" fill="white" transform="translate(0.5 0.444458)"/>
</clipPath>
</defs>
</svg>
