<svg width="36" height="28" viewBox="0 0 36 28" fill="none" xmlns="http://www.w3.org/2000/svg">
<g id="truck-fast" clip-path="url(#clip0_4_4799)">
<path id="Primary" d="M6.625 0C5.17578 0 4 1.17578 4 2.625V5.25H1.375C0.89375 5.25 0.5 5.64375 0.5 6.125C0.5 6.60625 0.89375 7 1.375 7H4H15.375C15.8562 7 16.25 7.39375 16.25 7.875C16.25 8.35625 15.8562 8.75 15.375 8.75H4H3.125C2.64375 8.75 2.25 9.14375 2.25 9.625C2.25 10.1062 2.64375 10.5 3.125 10.5H4H13.625C14.1062 10.5 14.5 10.8938 14.5 11.375C14.5 11.8562 14.1062 12.25 13.625 12.25H4H1.375C0.89375 12.25 0.5 12.6438 0.5 13.125C0.5 13.6062 0.89375 14 1.375 14H4H11.875C12.3562 14 12.75 14.3938 12.75 14.875C12.75 15.3562 12.3562 15.75 11.875 15.75H4V22.75C4 25.6484 6.35156 28 9.25 28C12.1484 28 14.5 25.6484 14.5 22.75H21.5C21.5 25.6484 23.8516 28 26.75 28C29.6484 28 32 25.6484 32 22.75H33.75C34.718 22.75 35.5 21.968 35.5 21C35.5 20.032 34.718 19.25 33.75 19.25V15.75V14V12.9773C33.75 12.0477 33.3836 11.1562 32.7273 10.5L28.5 6.27266C27.8438 5.61641 26.9523 5.25 26.0227 5.25H23.25V2.625C23.25 1.17578 22.0742 0 20.625 0H6.625ZM30.25 12.9773V14H23.25V8.75H26.0227L30.25 12.9773ZM9.25 20.125C9.94619 20.125 10.6139 20.4016 11.1062 20.8938C11.5984 21.3861 11.875 22.0538 11.875 22.75C11.875 23.4462 11.5984 24.1139 11.1062 24.6062C10.6139 25.0984 9.94619 25.375 9.25 25.375C8.55381 25.375 7.88613 25.0984 7.39384 24.6062C6.90156 24.1139 6.625 23.4462 6.625 22.75C6.625 22.0538 6.90156 21.3861 7.39384 20.8938C7.88613 20.4016 8.55381 20.125 9.25 20.125ZM24.125 22.75C24.125 22.0538 24.4016 21.3861 24.8938 20.8938C25.3861 20.4016 26.0538 20.125 26.75 20.125C27.4462 20.125 28.1139 20.4016 28.6062 20.8938C29.0984 21.3861 29.375 22.0538 29.375 22.75C29.375 23.4462 29.0984 24.1139 28.6062 24.6062C28.1139 25.0984 27.4462 25.375 26.75 25.375C26.0538 25.375 25.3861 25.0984 24.8938 24.6062C24.4016 24.1139 24.125 23.4462 24.125 22.75Z" fill="#FFBD66"/>
</g>
<defs>
<clipPath id="clip0_4_4799">
<rect width="35" height="28" fill="white" transform="translate(0.5)"/>
</clipPath>
</defs>
</svg>
